<?xml version="1.0" encoding="utf-8"?>
<svg version="1.1" id="svg2444" xmlns:svg="http://www.w3.org/2000/svg"
	 xmlns="http://www.w3.org/2000/svg" xmlns:xlink="http://www.w3.org/1999/xlink" x="0px" y="0px" width="557.778px"
	 height="233.736px" viewBox="0 0 557.778 233.736" enable-background="new 0 0 557.778 233.736" xml:space="preserve">
<g id="layer1" transform="translate(-1.111,-446.92275)">
	<g id="g2433" transform="translate(-25.877,421.91175)">
		<path id="path7" fill="#FFFFFF" d="M101.584,82.392C123.621,65.659,141.163,46,156.672,25.011L131.04,82.008l2.572,6.208
			l24.206-21.128v60.444l-26.778,24.866l7.271-50.88l-9.949,12.243l-5.737-12.624c-14.025,30.35-28.052,60.698-42.08,91.047
			c-1.519,3.342,1.959,5.873,4.971,3.44l19.514-16.064l-78.042,79.187l81.866-157.993l14.151-27.541
			c0.322-0.589,0.003-2.35-1.912-1.764L101.584,82.392L101.584,82.392z"/>
		<path id="path9" fill="#FFFFFF" d="M293.471,66.976h18.557v43.262h23.137v16.896c-13.897,0-27.795,0-41.693,0V66.976
			L293.471,66.976z"/>
		<path id="path11" fill="#FFFFFF" d="M338.256,66.976h18.557v43.262h21.607v16.896c-13.896,0-26.266,0-40.164,0V66.976
			L338.256,66.976z"/>
		<polygon id="polygon13" fill="#FFFFFF" points="382.098,66.976 400.869,66.976 400.869,127.134 382.098,127.134 		"/>
		<polygon id="polygon15" fill="#FFFFFF" points="238.681,83.387 238.681,127.134 218.817,127.134 218.817,83.387 208.813,83.387 
			208.813,66.976 261.418,66.976 254.435,83.387 		"/>
		<path id="path17" fill="#FFFFFF" d="M162.499,66.976c14.043,0,28.086,0,42.129,0v16.411h-23.357v6.038h23.357v16.411h-23.357
			v4.888h23.357v16.411c-14.043,0-28.086,0-42.129,0V66.976L162.499,66.976z"/>
		<path id="path19" fill="#FFFFFF" d="M288.537,66.976l0.229,60.158h-17.809v-16.867h-1.389l-8.328,16.867h-19.201l26.369-60.158
			H288.537L288.537,66.976z M268.552,97.889l4.6,0.167v-8.514L268.552,97.889L268.552,97.889z"/>
		<path id="path21" fill="#FFFFFF" d="M436.354,63.437c8.154,0,15.605,3.06,21.268,8.083l-13.715,14.282
			c-2.139-1.739-4.887-2.786-7.881-2.786c-6.785,0-12.316,5.384-12.316,11.988s5.531,11.988,12.316,11.988
			c4.986,0,9.299-2.91,11.23-7.076l17,10.94c-5.496,9.7-15.947,16.277-27.902,16.277c-17.625,0-32.004-14.307-32.004-31.849
			C404.352,77.743,418.729,63.437,436.354,63.437L436.354,63.437z"/>
		<path id="path23" fill="#FFFFFF" d="M448.879,25.844c18.57,16.526,37.512,32.684,57.107,48.187
			c-6.543-3.825-13.088-7.649-19.631-11.475c-2.172-1.088-5.367,0-3.061,4.42c33.84,63.506,68.352,126.745,101.471,190.619
			c-28.879-26.977-56.639-53.389-83.369-79.291l28.047,17.338c3.344,1.407,5.504-1.333,2.039-6.887l-33.906-70.364l-5.865-11.728
			l-7.904-0.254l7.395,47.166l-22.799-26.44l-3.898-73.225L448.879,25.844L448.879,25.844z M480.867,90.128h4.494l-6.533-10.634
			L480.867,90.128L480.867,90.128z"/>
	</g>
</g>
</svg>
